<?xml version="1.0" encoding="UTF-8"?> <svg xmlns="http://www.w3.org/2000/svg" width="263" height="61" viewBox="0 0 263 61" fill="none"><path d="M138.522 36.7725C131.889 36.7725 126.633 41.8788 126.633 48.6043C126.633 55.3297 132.014 60.4361 138.522 60.4361C145.154 60.4361 150.41 55.2052 150.41 48.6043C150.41 41.8788 145.154 36.7725 138.522 36.7725ZM138.522 41.5052C142.526 41.5052 145.53 44.4943 145.53 48.6043C145.53 52.7143 142.401 55.7034 138.522 55.7034C134.517 55.7034 131.514 52.7143 131.514 48.6043C131.388 44.4943 134.517 41.5052 138.522 41.5052ZM237.51 52.8388V42.0034H243.142V37.2706H237.51V30.9188L232.63 32.4134V37.2706H228.5V42.0034H232.63V52.8388C232.63 58.6924 235.633 60.8097 243.142 59.8134V55.4543C239.387 55.7034 237.51 55.7034 237.51 52.8388ZM262.789 55.3297H251.651L262.789 42.0034V37.5197H245.519V42.0034H256.657L245.519 55.3297V59.9379H262.789V55.3297ZM164.176 37.0215V42.2525C160.922 42.0034 157.168 43.4979 157.168 48.6043V59.9379H152.287V37.3952H157.168V41.1315C158.545 38.1425 161.298 37.0215 164.176 37.0215ZM175.94 36.7725C169.307 36.7725 164.051 41.8788 164.051 48.6043C164.051 55.3297 169.432 60.4361 175.94 60.4361C182.572 60.4361 187.828 55.2052 187.828 48.6043C187.953 41.8788 182.697 36.7725 175.94 36.7725ZM175.94 41.5052C179.944 41.5052 182.948 44.4943 182.948 48.6043C182.948 52.7143 179.819 55.7034 175.94 55.7034C171.935 55.7034 168.931 52.7143 168.931 48.6043C168.931 44.4943 172.06 41.5052 175.94 41.5052ZM220.115 37.3952L212.982 59.9379H208.227L203.471 44.7434L198.716 59.9379H193.96L186.827 37.3952H191.958L196.338 52.9634L201.093 37.3952H205.724L210.479 52.9634L214.859 37.3952H220.115ZM226.623 37.3952H221.742V59.9379H226.623V37.3952ZM67.8156 2.14884V11.4897C65.9384 10.1197 63.3104 8.99884 60.8076 8.99884C53.7995 8.99884 48.1681 15.1016 48.9189 22.2006C49.5446 27.6806 54.0498 32.1643 59.5561 32.787C62.6847 33.0361 65.563 32.1643 67.8156 30.5452V32.2888H72.8213V0.654297L67.8156 2.14884ZM67.6904 20.9552C67.6904 25.3143 63.6859 28.677 59.1807 27.6806C56.5527 27.1825 54.4252 25.0652 53.7995 22.3252C52.9235 17.8416 56.4275 13.8561 60.8076 13.8561C64.5619 13.8561 67.6904 16.9697 67.6904 20.9552ZM19.5102 9.74611V11.2407C17.6331 9.87066 15.1302 8.99884 12.6273 8.99884C5.61929 8.99884 -0.0121658 15.1016 0.738695 22.2006C1.36441 27.6806 5.86958 32.1643 11.3759 32.787C14.5045 33.0361 17.3828 32.1643 19.6354 30.5452V32.2888H24.6411V9.74611H19.5102ZM19.5102 20.9552C19.5102 25.3143 15.5056 28.677 11.0005 27.6806C8.37245 27.1825 6.24501 25.0652 5.61929 22.3252C4.74329 17.8416 8.2473 13.8561 12.6273 13.8561C16.3816 13.8561 19.5102 16.9697 19.5102 20.9552ZM38.4069 9.12338C35.2783 9.12338 32.9006 10.2443 31.3988 12.6107V9.62156H26.5182V32.1643H31.3988V20.0834C31.3988 15.4752 33.9017 13.607 37.1554 13.607C40.284 13.607 42.1612 15.3507 42.1612 18.8379V32.1643H47.0418V18.4643C47.1669 12.6107 43.5378 9.12338 38.4069 9.12338ZM129.386 25.5634C128.26 27.1825 126.258 28.3034 123.504 28.3034C119.875 28.3034 116.997 26.5597 116.246 22.9479H134.267C134.392 22.3252 134.392 21.5779 134.392 20.9552C134.392 14.4788 129.762 9.12338 123.004 9.12338C115.871 9.12338 111.115 14.3543 111.115 20.9552C111.115 27.6806 115.996 32.787 123.379 32.787C127.759 32.787 131.263 30.9188 133.266 27.9297L129.386 25.5634ZM123.129 13.607C126.132 13.607 128.886 15.2261 129.636 19.087H116.246C116.997 15.7243 119.5 13.607 123.129 13.607ZM185.325 28.4279C188.078 28.4279 190.081 27.1825 191.207 25.6879L195.212 28.0543C193.084 31.1679 189.705 32.9116 185.325 32.9116C177.817 32.9116 173.061 27.8052 173.061 21.0797C173.061 14.3543 177.942 9.24793 184.95 9.24793C191.708 9.24793 196.338 14.6034 196.338 21.0797C196.338 21.3288 196.338 21.7025 196.213 22.0761C196.213 22.4497 196.088 22.6988 196.088 23.0725H178.067C178.818 26.5597 181.696 28.4279 185.325 28.4279ZM191.332 19.087C190.706 15.2261 187.828 13.607 184.825 13.607C181.196 13.607 178.693 15.7243 177.942 19.087H191.332ZM226.623 32.2888H221.742V27.9297H226.623V32.2888ZM198.716 32.2888H203.596V20.2079C203.596 15.5997 206.099 13.7316 209.353 13.7316C212.356 13.7316 214.359 15.5997 214.359 18.9625V32.1643H219.239V18.3397C219.239 12.4861 215.61 9.12338 210.604 9.12338C207.476 9.12338 205.098 10.2443 203.596 12.6107V9.74611H198.716V32.2888ZM140.899 15.9734C140.899 14.3543 142.401 13.607 144.153 13.607C145.905 13.607 147.407 14.3543 148.283 15.8488L152.538 13.7316C150.911 10.867 147.907 9.12338 144.153 9.12338C139.523 9.12338 135.894 11.7388 135.894 15.9734C135.894 20.7061 139.898 21.827 143.402 22.8234H143.527C143.653 22.8234 143.778 22.9479 143.903 22.9479C146.281 23.6952 148.033 24.1934 148.033 25.8125C148.033 27.5561 146.406 28.3034 144.153 28.3034C142.026 28.3034 140.274 27.4316 139.398 25.8125L135.018 27.9297C136.519 30.9188 139.773 32.787 144.028 32.787C148.909 32.787 152.913 30.2961 152.913 25.8125C152.913 20.9552 148.658 19.7097 145.279 18.8379C143.027 18.2152 140.899 17.5925 140.899 15.9734ZM159.796 15.9734C159.796 14.3543 161.298 13.607 163.05 13.607C164.802 13.607 166.303 14.3543 167.305 15.9734L171.56 13.8561C169.933 10.9916 166.804 9.24793 163.175 9.24793C158.545 9.24793 154.915 11.8634 154.915 16.0979C154.915 20.8306 158.92 21.9516 162.424 22.9479H162.799C165.052 23.6952 167.054 24.3179 167.054 25.937C167.054 27.6806 165.302 28.4279 163.175 28.4279C160.922 28.4279 159.295 27.5561 158.419 25.937L154.039 28.0543C155.541 31.0434 158.67 32.9116 163.05 32.9116C168.055 32.9116 171.935 30.4206 171.935 25.937C171.935 21.0797 167.93 19.9588 164.426 18.9625H164.301C164.051 18.9625 163.926 18.8379 163.675 18.8379C161.548 18.0907 159.796 17.5925 159.796 15.9734ZM86.7122 14.6034V9.37247C83.8339 9.37247 81.0808 10.4934 79.7042 13.4825V9.74611H74.8236V32.2888H79.7042V20.9552C79.7042 15.8488 83.4585 14.3543 86.7122 14.6034ZM109.113 27.9297V40.2597C110.615 37.8934 112.992 36.7725 116.121 36.7725C121.127 36.7725 124.756 40.1352 124.756 45.9888V59.9379H119.875V46.6115C119.875 43.2488 117.873 41.3806 114.87 41.3806C111.616 41.3806 109.113 43.2488 109.113 47.857V59.9379H104.232V31.9152C102.731 32.5379 101.104 32.9116 99.2266 32.9116C91.718 32.9116 86.9625 27.8052 86.9625 21.0797C86.9625 14.3543 91.8431 9.24793 98.8512 9.24793C105.609 9.24793 110.239 14.6034 110.239 21.0797C110.239 21.3288 110.239 21.7025 110.114 22.0761C110.114 22.4497 109.989 22.6988 109.989 23.0725H91.9683C92.7191 26.5597 95.5974 28.4279 99.2266 28.4279C101.354 28.4279 102.981 27.6806 104.232 26.6843C104.608 26.4352 104.858 26.0616 105.108 25.6879L109.113 27.9297ZM105.233 19.087C104.483 15.2261 101.729 13.607 98.726 13.607C95.0969 13.607 92.594 15.7243 91.9683 19.087H105.233Z" fill="#e0e0e0"></path></svg> 