<?xml version="1.0" encoding="UTF-8"?> <svg xmlns="http://www.w3.org/2000/svg" width="1680" height="900" viewBox="0 0 1680 900" fill="none"><g filter="url(#filter0_d_3646_2680)"><path d="M966.523 494.387H961.521C961.481 494.387 961.461 494.361 961.461 494.308L961.476 483.221C961.476 483.179 961.496 483.158 961.536 483.158H966.508C966.548 483.158 966.569 483.184 966.569 483.237V485.041C966.569 485.083 966.548 485.104 966.508 485.104H963.335V487.626H966.508C966.548 487.626 966.569 487.647 966.569 487.689L966.584 489.517C966.584 489.559 966.563 489.58 966.523 489.58H963.335V492.401H966.523C966.563 492.401 966.584 492.428 966.584 492.48V494.324C966.584 494.366 966.563 494.387 966.523 494.387Z" fill="white"></path><path d="M971.207 494.545C970.658 494.545 970.152 494.398 969.688 494.103C969.23 493.809 968.862 493.418 968.585 492.929C968.313 492.435 968.177 491.894 968.177 491.306V490.565C968.177 490.507 968.202 490.479 968.253 490.479H969.991C970.031 490.479 970.051 490.507 970.051 490.565V491.306C970.051 491.658 970.164 491.963 970.391 492.22C970.618 492.472 970.89 492.598 971.207 492.598C971.529 492.598 971.804 492.47 972.031 492.212C972.257 491.95 972.371 491.647 972.371 491.306C972.371 490.912 972.124 490.568 971.63 490.274C971.55 490.221 971.444 490.158 971.313 490.085C971.187 490.006 971.036 489.916 970.859 489.817C970.683 489.717 970.512 489.62 970.346 489.525C970.179 489.425 970.018 489.331 969.862 489.241C969.298 488.895 968.877 488.461 968.6 487.941C968.328 487.416 968.192 486.827 968.192 486.176C968.192 485.577 968.333 485.036 968.615 484.553C968.898 484.075 969.265 483.696 969.719 483.418C970.177 483.134 970.673 482.992 971.207 482.992C971.756 482.992 972.26 483.134 972.718 483.418C973.177 483.707 973.542 484.09 973.814 484.568C974.091 485.046 974.229 485.582 974.229 486.176V487.5C974.229 487.542 974.209 487.563 974.169 487.563H972.431C972.391 487.563 972.371 487.542 972.371 487.5L972.356 486.176C972.356 485.798 972.242 485.49 972.016 485.254C971.789 485.018 971.519 484.899 971.207 484.899C970.89 484.899 970.618 485.025 970.391 485.278C970.164 485.53 970.051 485.829 970.051 486.176C970.051 486.528 970.122 486.822 970.263 487.059C970.409 487.295 970.673 487.521 971.056 487.736C971.096 487.757 971.189 487.81 971.336 487.894C971.482 487.978 971.643 488.072 971.819 488.178C972 488.277 972.164 488.369 972.31 488.453C972.456 488.532 972.544 488.579 972.575 488.595C973.088 488.895 973.494 489.262 973.791 489.698C974.093 490.134 974.244 490.67 974.244 491.306C974.244 491.921 974.108 492.472 973.836 492.961C973.559 493.449 973.192 493.836 972.733 494.119C972.275 494.403 971.766 494.545 971.207 494.545Z" fill="white"></path><path d="M979.238 494.387H977.493C977.447 494.387 977.425 494.361 977.425 494.308V485.104H975.415C975.365 485.104 975.339 485.078 975.339 485.025L975.354 483.221C975.354 483.179 975.375 483.158 975.415 483.158H981.293C981.349 483.158 981.376 483.179 981.376 483.221V485.025C981.376 485.078 981.356 485.104 981.316 485.104H979.283L979.299 494.308C979.299 494.361 979.278 494.387 979.238 494.387Z" fill="white"></path><path d="M984.564 494.387H982.811C982.771 494.387 982.751 494.366 982.751 494.324V492.496C982.751 492.454 982.771 492.433 982.811 492.433H984.564C984.604 492.433 984.625 492.454 984.625 492.496V494.324C984.625 494.366 984.604 494.387 984.564 494.387Z" fill="white"></path><path d="M996.705 494.387H990.932C990.882 494.387 990.857 494.361 990.857 494.308V492.48C990.857 492.459 990.867 492.438 990.887 492.417L994.71 486.948C994.781 486.848 994.839 486.722 994.884 486.57C994.934 486.412 994.959 486.276 994.959 486.16C994.959 485.845 994.851 485.556 994.635 485.293C994.418 485.031 994.143 484.899 993.811 484.899C993.494 484.899 993.224 485.025 993.003 485.278C992.781 485.53 992.67 485.85 992.67 486.239V487.027C992.67 487.08 992.645 487.106 992.595 487.106H990.857C990.816 487.106 990.796 487.08 990.796 487.027V486.239C990.796 485.635 990.94 485.086 991.227 484.592C991.509 484.098 991.879 483.707 992.338 483.418C992.796 483.124 993.287 482.977 993.811 482.977C994.365 482.977 994.871 483.124 995.33 483.418C995.783 483.717 996.146 484.109 996.418 484.592C996.695 485.075 996.833 485.598 996.833 486.16C996.833 486.512 996.773 486.872 996.652 487.24C996.536 487.602 996.375 487.925 996.168 488.209L993.229 492.417H996.705C996.75 492.417 996.773 492.438 996.773 492.48V494.308C996.773 494.361 996.75 494.387 996.705 494.387Z" fill="white"></path><path d="M1001.74 494.545C1001.09 494.545 1000.51 494.398 999.998 494.103C999.495 493.809 999.099 493.418 998.812 492.929C998.53 492.435 998.389 491.894 998.389 491.306L998.404 486.192C998.404 485.593 998.548 485.054 998.835 484.576C999.117 484.093 999.51 483.707 1000.01 483.418C1000.52 483.124 1001.09 482.977 1001.74 482.977C1002.41 482.977 1002.99 483.121 1003.48 483.41C1003.98 483.699 1004.36 484.088 1004.65 484.576C1004.93 485.06 1005.08 485.598 1005.08 486.192L1005.09 491.306C1005.09 491.889 1004.95 492.428 1004.67 492.921C1004.38 493.415 1003.99 493.809 1003.48 494.103C1002.98 494.398 1002.4 494.545 1001.74 494.545ZM1003.22 491.306L1003.2 486.192C1003.2 485.813 1003.07 485.506 1002.79 485.27C1002.53 485.033 1002.18 484.915 1001.74 484.915C1001.3 484.915 1000.95 485.033 1000.68 485.27C1000.41 485.506 1000.28 485.813 1000.28 486.192V491.306C1000.28 491.705 1000.41 492.02 1000.68 492.252C1000.95 492.483 1001.3 492.598 1001.74 492.598C1002.18 492.598 1002.53 492.483 1002.8 492.252C1003.08 492.02 1003.22 491.705 1003.22 491.306Z" fill="white"></path><path d="M1012.43 494.387H1006.66C1006.61 494.387 1006.59 494.361 1006.59 494.308V492.48C1006.59 492.459 1006.6 492.438 1006.62 492.417L1010.44 486.948C1010.51 486.848 1010.57 486.722 1010.61 486.57C1010.66 486.412 1010.69 486.276 1010.69 486.16C1010.69 485.845 1010.58 485.556 1010.36 485.293C1010.15 485.031 1009.87 484.899 1009.54 484.899C1009.22 484.899 1008.95 485.025 1008.73 485.278C1008.51 485.53 1008.4 485.85 1008.4 486.239V487.027C1008.4 487.08 1008.37 487.106 1008.32 487.106H1006.59C1006.55 487.106 1006.53 487.08 1006.53 487.027V486.239C1006.53 485.635 1006.67 485.086 1006.96 484.592C1007.24 484.098 1007.61 483.707 1008.07 483.418C1008.53 483.124 1009.02 482.977 1009.54 482.977C1010.09 482.977 1010.6 483.124 1011.06 483.418C1011.51 483.717 1011.88 484.109 1012.15 484.592C1012.42 485.075 1012.56 485.598 1012.56 486.16C1012.56 486.512 1012.5 486.872 1012.38 487.24C1012.27 487.602 1012.1 487.925 1011.9 488.209L1008.96 492.417H1012.43C1012.48 492.417 1012.5 492.438 1012.5 492.48V494.308C1012.5 494.361 1012.48 494.387 1012.43 494.387Z" fill="white"></path><path d="M1019.85 494.387H1014.08C1014.03 494.387 1014.01 494.361 1014.01 494.308V492.48C1014.01 492.459 1014.02 492.438 1014.04 492.417L1017.86 486.948C1017.93 486.848 1017.99 486.722 1018.03 486.57C1018.08 486.412 1018.11 486.276 1018.11 486.16C1018.11 485.845 1018 485.556 1017.78 485.293C1017.57 485.031 1017.29 484.899 1016.96 484.899C1016.64 484.899 1016.37 485.025 1016.15 485.278C1015.93 485.53 1015.82 485.85 1015.82 486.239V487.027C1015.82 487.08 1015.79 487.106 1015.74 487.106H1014.01C1013.97 487.106 1013.94 487.08 1013.94 487.027V486.239C1013.94 485.635 1014.09 485.086 1014.38 484.592C1014.66 484.098 1015.03 483.707 1015.49 483.418C1015.94 483.124 1016.44 482.977 1016.96 482.977C1017.51 482.977 1018.02 483.124 1018.48 483.418C1018.93 483.717 1019.29 484.109 1019.57 484.592C1019.84 485.075 1019.98 485.598 1019.98 486.16C1019.98 486.512 1019.92 486.872 1019.8 487.24C1019.68 487.602 1019.52 487.925 1019.32 488.209L1016.38 492.417H1019.85C1019.9 492.417 1019.92 492.438 1019.92 492.48V494.308C1019.92 494.361 1019.9 494.387 1019.85 494.387Z" fill="white"></path><path d="M725.858 498.606L712.971 498.603C698.349 498.626 685.102 493.216 675.519 484.475C665.935 475.709 660.004 463.637 660.004 450.313C660.004 436.993 665.935 424.917 675.519 416.173C685.102 407.41 698.349 402.001 712.971 402.001L798.925 402.014C813.544 402.017 826.787 407.423 836.37 416.16C845.964 424.888 851.898 436.967 851.898 450.306C851.898 463.633 845.964 475.706 836.381 484.45C826.818 493.197 813.568 498.603 798.925 498.606L740.48 498.629V487.283H798.925C810.102 487.306 820.247 483.15 827.588 476.452C834.921 469.776 839.456 460.523 839.456 450.306C839.456 440.096 834.915 430.851 827.588 424.168C820.257 417.457 810.113 413.315 798.925 413.315L712.971 413.324C701.779 413.347 691.639 417.489 684.312 424.171C676.978 430.847 672.444 440.096 672.444 450.313C672.444 460.527 676.978 469.779 684.301 476.465C691.639 483.138 701.779 487.28 712.971 487.28L725.858 487.306V498.607V498.606ZM738.9 498.629H727.437V487.283H738.9V498.629ZM738.9 485.833H727.437V474.487H738.9V485.833ZM738.9 473.04H727.437V461.694H738.9V473.04ZM725.858 485.833H712.971C702.234 485.833 692.502 481.852 685.458 475.429C678.392 468.982 674.027 460.106 674.027 450.313C674.027 440.521 678.392 431.645 685.434 425.22C692.503 418.775 702.235 414.794 712.971 414.794L798.926 414.81C809.666 414.788 819.397 418.769 826.438 425.191C833.508 431.616 837.869 440.502 837.869 450.307C837.869 460.103 833.508 468.979 826.463 475.404C819.421 481.852 809.676 485.833 798.926 485.833H740.481V474.487H798.926C806.245 474.487 812.874 471.779 817.673 467.406C822.465 463.045 825.43 456.993 825.43 450.306C825.43 443.63 822.465 437.581 817.673 433.211C812.889 428.837 806.253 426.133 798.926 426.133L712.971 426.117C705.644 426.139 699.009 428.844 694.217 433.208C689.433 437.578 686.467 443.631 686.467 450.313C686.467 456.996 689.433 463.049 694.217 467.419C699.009 471.783 705.645 474.487 712.971 474.487H725.858V485.834L725.858 485.833ZM725.858 473.04H712.971C706.123 473.04 699.893 470.493 695.376 466.38C690.842 462.238 688.049 456.555 688.049 450.31C688.049 444.039 690.841 438.353 695.351 434.24C699.861 430.127 706.094 427.58 712.973 427.58H798.924C805.803 427.58 812.037 430.127 816.547 434.24C821.056 438.353 823.849 444.039 823.849 450.31C823.849 456.581 821.056 462.267 816.547 466.38C812.037 470.493 805.803 473.04 798.924 473.04H740.479V461.694H798.924C802.373 461.694 805.503 460.414 807.757 458.36C810.006 456.305 811.413 453.452 811.413 450.31C811.413 447.168 810.006 444.316 807.757 442.261C805.503 440.206 802.373 438.925 798.924 438.925H712.973C709.525 438.925 706.397 440.205 704.145 442.261C701.892 444.316 700.488 447.168 700.488 450.31C700.488 453.468 701.878 456.317 704.12 458.36C706.383 460.427 709.507 461.694 712.97 461.694H725.857V473.04H725.858Z" fill="white"></path><path d="M934.43 494.548H927.357C927.255 494.548 927.203 494.483 927.203 494.355L927.28 467.24C927.28 467.137 927.332 467.086 927.434 467.086H935.027C936.505 467.086 937.847 467.446 939.055 468.165C940.237 468.885 941.168 469.842 941.849 471.037C942.53 472.219 942.871 473.503 942.871 474.891C942.871 476.021 942.614 477.075 942.1 478.051C941.586 479.028 940.976 479.818 940.269 480.422C941.027 481.18 941.618 482.06 942.042 483.062C942.466 484.064 942.678 485.118 942.678 486.222C942.678 487.751 942.312 489.145 941.579 490.404C940.834 491.663 939.839 492.672 938.592 493.43C937.346 494.175 935.959 494.548 934.43 494.548ZM935.027 471.769H932.021V477.974H935.027C935.939 477.974 936.678 477.653 937.243 477.011C937.809 476.355 938.091 475.649 938.091 474.891C938.091 474.056 937.789 473.33 937.186 472.713C936.582 472.084 935.862 471.769 935.027 471.769ZM934.43 482.754H932.021L931.982 489.73H934.43C935.381 489.73 936.196 489.383 936.877 488.689C937.558 487.995 937.899 487.173 937.899 486.222C937.899 485.272 937.558 484.456 936.877 483.775C936.196 483.094 935.381 482.754 934.43 482.754Z" fill="white"></path><path d="M914.743 494.933C913.356 494.933 912.071 494.573 910.889 493.854C909.707 493.134 908.763 492.171 908.056 490.963C907.363 489.743 907.016 488.413 907.016 486.974L907.093 467.24C907.093 467.137 907.144 467.086 907.247 467.086H911.679C911.782 467.086 911.833 467.137 911.833 467.24V486.974C911.833 487.861 912.116 488.619 912.681 489.248C913.247 489.865 913.934 490.173 914.743 490.173C915.591 490.173 916.298 489.865 916.863 489.248C917.429 488.619 917.711 487.861 917.711 486.974V467.24C917.711 467.137 917.763 467.086 917.865 467.086H922.298C922.401 467.086 922.452 467.137 922.452 467.24L922.529 486.974C922.529 488.426 922.182 489.762 921.488 490.982C920.782 492.19 919.844 493.154 918.675 493.873C917.506 494.58 916.195 494.933 914.743 494.933Z" fill="white"></path><path d="M903.115 494.548H890.357C890.255 494.548 890.203 494.483 890.203 494.355L890.242 467.279C890.242 467.15 890.306 467.086 890.434 467.086H894.828C894.957 467.086 895.021 467.15 895.021 467.279L894.982 489.691H903.115C903.243 489.691 903.308 489.756 903.308 489.884V494.355C903.308 494.483 903.243 494.548 903.115 494.548Z" fill="white"></path><path d="M878.001 494.931C876.575 494.931 875.271 494.571 874.089 493.852C872.92 493.132 871.989 492.169 871.295 490.961C870.614 489.741 870.273 488.385 870.273 486.895L870.312 474.58C870.312 473.116 870.646 471.793 871.314 470.611C871.982 469.416 872.901 468.459 874.07 467.739C875.252 467.007 876.562 466.641 878.001 466.641C879.466 466.641 880.77 466.994 881.913 467.701C883.07 468.407 883.988 469.364 884.669 470.572C885.363 471.767 885.71 473.103 885.71 474.58V476.392C885.71 476.495 885.658 476.546 885.556 476.546H881.123C881.02 476.546 880.969 476.495 880.969 476.392V474.58C880.969 473.707 880.686 472.955 880.121 472.326C879.556 471.696 878.849 471.381 878.001 471.381C877.063 471.381 876.344 471.703 875.843 472.345C875.342 472.987 875.091 473.733 875.091 474.58V486.895C875.091 487.858 875.374 488.649 875.939 489.265C876.504 489.869 877.192 490.171 878.001 490.171C878.849 490.171 879.556 489.837 880.121 489.169C880.686 488.488 880.969 487.73 880.969 486.895V485.064C880.969 484.961 881.02 484.91 881.123 484.91H885.594C885.697 484.91 885.748 484.961 885.748 485.064V486.895C885.748 488.372 885.401 489.721 884.708 490.942C884.001 492.15 883.07 493.12 881.913 493.852C880.757 494.571 879.453 494.931 878.001 494.931Z" fill="white"></path><path d="M987.845 463.63C986.419 463.63 985.135 463.277 983.991 462.57C982.835 461.864 981.904 460.913 981.197 459.718C980.503 458.523 980.156 457.187 980.156 455.71V443.203C980.156 441.764 980.51 440.453 981.216 439.271C981.91 438.076 982.841 437.126 984.011 436.419C985.18 435.7 986.458 435.34 987.845 435.34C989.297 435.34 990.608 435.687 991.777 436.381C992.946 437.087 993.871 438.031 994.552 439.213C995.246 440.395 995.593 441.725 995.593 443.203V445.014C995.593 445.117 995.528 445.168 995.4 445.168H990.967C990.865 445.168 990.813 445.117 990.813 445.014V443.511C990.813 442.509 990.531 441.68 989.965 441.025C989.4 440.37 988.693 440.042 987.845 440.042C987.087 440.042 986.413 440.357 985.822 440.986C985.231 441.616 984.936 442.355 984.936 443.203V455.71C984.936 456.571 985.225 457.316 985.803 457.945C986.381 458.562 987.062 458.87 987.845 458.87C988.693 458.87 989.4 458.568 989.965 457.964C990.531 457.348 990.813 456.596 990.813 455.71V453.763H988.057C987.916 453.763 987.845 453.699 987.845 453.571V449.157C987.845 449.029 987.916 448.965 988.057 448.965H995.438C995.541 448.965 995.593 449.029 995.593 449.157V455.71C995.593 457.187 995.246 458.523 994.552 459.718C993.845 460.913 992.914 461.864 991.758 462.57C990.601 463.277 989.297 463.63 987.845 463.63Z" fill="white"></path><path d="M965.032 463.243H961.081C960.876 463.243 960.773 463.153 960.773 462.973L960.734 436.09C960.734 435.884 960.837 435.781 961.043 435.781H964.608L971.276 451.333L971.083 436.09C971.083 435.884 971.199 435.781 971.43 435.781H975.342C975.496 435.781 975.573 435.884 975.573 436.09L975.612 463.012C975.612 463.166 975.548 463.243 975.419 463.243H971.95L965.109 448.712L965.398 462.935C965.398 463.14 965.276 463.243 965.032 463.243Z" fill="white"></path><path d="M955.531 463.243H951.06C950.931 463.243 950.867 463.179 950.867 463.05L950.906 435.935C950.906 435.833 950.957 435.781 951.06 435.781H955.492C955.595 435.781 955.646 435.833 955.646 435.935L955.685 463.05C955.685 463.179 955.634 463.243 955.531 463.243Z" fill="white"></path><path d="M935.282 463.243H931.331C931.126 463.243 931.023 463.153 931.023 462.973L930.984 436.09C930.984 435.884 931.087 435.781 931.293 435.781H934.858L941.526 451.333L941.333 436.09C941.333 435.884 941.449 435.781 941.68 435.781H945.592C945.746 435.781 945.823 435.884 945.823 436.09L945.862 463.012C945.862 463.166 945.798 463.243 945.669 463.243H942.2L935.359 448.712L935.648 462.935C935.648 463.14 935.526 463.243 935.282 463.243Z" fill="white"></path><path d="M915.391 463.243H911.441C911.235 463.243 911.132 463.153 911.132 462.973L911.094 436.09C911.094 435.884 911.197 435.781 911.402 435.781H914.967L921.635 451.333L921.442 436.09C921.442 435.884 921.558 435.781 921.789 435.781H925.701C925.856 435.781 925.933 435.884 925.933 436.09L925.971 463.012C925.971 463.166 925.907 463.243 925.778 463.243H922.31L915.468 448.712L915.757 462.935C915.757 463.14 915.635 463.243 915.391 463.243Z" fill="white"></path><path d="M898.618 463.628C897.231 463.628 895.946 463.269 894.764 462.549C893.582 461.83 892.638 460.866 891.931 459.659C891.238 458.438 890.891 457.108 890.891 455.669L890.968 435.935C890.968 435.833 891.019 435.781 891.122 435.781H895.554C895.657 435.781 895.708 435.833 895.708 435.935V455.669C895.708 456.556 895.991 457.314 896.556 457.943C897.122 458.56 897.809 458.868 898.618 458.868C899.466 458.868 900.173 458.56 900.738 457.943C901.304 457.314 901.586 456.556 901.586 455.669V435.935C901.586 435.833 901.638 435.781 901.74 435.781H906.173C906.276 435.781 906.327 435.833 906.327 435.935L906.404 455.669C906.404 457.121 906.057 458.457 905.363 459.678C904.657 460.885 903.719 461.849 902.55 462.569C901.381 463.275 900.07 463.628 898.618 463.628Z" fill="white"></path><path d="M875.367 463.243H870.896C870.794 463.243 870.742 463.179 870.742 463.05L870.819 435.935C870.819 435.833 870.871 435.781 870.973 435.781H878.952C880.378 435.781 881.688 436.128 882.883 436.822C884.078 437.516 885.029 438.447 885.735 439.616C886.455 440.785 886.814 442.109 886.814 443.586C886.814 444.55 886.667 445.423 886.371 446.207C886.076 446.991 885.729 447.652 885.331 448.192C884.945 448.732 884.592 449.13 884.271 449.387C885.697 450.967 886.41 452.824 886.41 454.956L886.448 463.05C886.448 463.179 886.384 463.243 886.256 463.243H881.785C881.682 463.243 881.63 463.204 881.63 463.127V454.956C881.63 454.006 881.296 453.183 880.628 452.49C879.96 451.796 879.138 451.449 878.162 451.449H875.56L875.521 463.05C875.521 463.179 875.47 463.243 875.367 463.243ZM878.952 440.503H875.56V446.708H878.952C879.761 446.708 880.481 446.406 881.11 445.802C881.753 445.199 882.074 444.46 882.074 443.586C882.074 442.751 881.765 442.032 881.149 441.428C880.532 440.811 879.8 440.503 878.952 440.503Z" fill="white"></path><path d="M1012.26 432.326C1010.86 432.326 1009.57 431.966 1008.39 431.247C1007.22 430.527 1006.28 429.57 1005.57 428.375C1004.88 427.168 1004.53 425.844 1004.53 424.406V422.594C1004.53 422.453 1004.6 422.382 1004.72 422.382H1009.16C1009.26 422.382 1009.31 422.453 1009.31 422.594V424.406C1009.31 425.266 1009.6 426.012 1010.18 426.641C1010.76 427.258 1011.45 427.566 1012.26 427.566C1013.08 427.566 1013.78 427.251 1014.36 426.622C1014.94 425.979 1015.23 425.241 1015.23 424.406C1015.23 423.442 1014.6 422.6 1013.34 421.881C1013.13 421.753 1012.86 421.598 1012.53 421.418C1012.21 421.226 1011.82 421.007 1011.37 420.763C1010.92 420.519 1010.49 420.281 1010.06 420.05C1009.64 419.806 1009.23 419.575 1008.83 419.356C1007.39 418.509 1006.32 417.449 1005.61 416.177C1004.92 414.892 1004.57 413.453 1004.57 411.86C1004.57 410.395 1004.93 409.072 1005.65 407.89C1006.37 406.721 1007.31 405.796 1008.46 405.115C1009.63 404.421 1010.9 404.074 1012.26 404.074C1013.66 404.074 1014.94 404.421 1016.11 405.115C1017.28 405.821 1018.21 406.759 1018.91 407.929C1019.61 409.098 1019.97 410.408 1019.97 411.86V415.097C1019.97 415.2 1019.92 415.252 1019.81 415.252H1015.38C1015.28 415.252 1015.23 415.2 1015.23 415.097L1015.19 411.86C1015.19 410.935 1014.9 410.183 1014.32 409.605C1013.74 409.027 1013.06 408.738 1012.26 408.738C1011.45 408.738 1010.76 409.046 1010.18 409.663C1009.6 410.28 1009.31 411.012 1009.31 411.86C1009.31 412.721 1009.49 413.44 1009.85 414.018C1010.22 414.596 1010.9 415.149 1011.87 415.676C1011.98 415.727 1012.21 415.855 1012.59 416.061C1012.96 416.267 1013.37 416.498 1013.82 416.755C1014.28 416.999 1014.7 417.224 1015.07 417.429C1015.45 417.622 1015.67 417.738 1015.75 417.776C1017.06 418.509 1018.09 419.408 1018.85 420.474C1019.62 421.541 1020.01 422.851 1020.01 424.406C1020.01 425.909 1019.66 427.258 1018.97 428.453C1018.26 429.647 1017.32 430.592 1016.15 431.285C1014.98 431.979 1013.69 432.326 1012.26 432.326Z" fill="white"></path><path d="M989.563 431.942H985.092C984.989 431.942 984.938 431.878 984.938 431.75L985.015 404.635C985.015 404.532 985.066 404.48 985.169 404.48H993.147C994.573 404.48 995.884 404.827 997.078 405.521C998.273 406.215 999.224 407.146 999.931 408.315C1000.65 409.485 1001.01 410.808 1001.01 412.285C1001.01 413.249 1000.86 414.123 1000.57 414.906C1000.27 415.69 999.924 416.352 999.526 416.891C999.14 417.431 998.787 417.829 998.466 418.086C999.892 419.666 1000.61 421.523 1000.61 423.656L1000.64 431.75C1000.64 431.878 1000.58 431.942 1000.45 431.942H995.98C995.877 431.942 995.826 431.904 995.826 431.827V423.656C995.826 422.705 995.492 421.883 994.824 421.189C994.156 420.495 993.333 420.148 992.357 420.148H989.755L989.717 431.75C989.717 431.878 989.665 431.942 989.563 431.942ZM993.147 409.202H989.755V415.407H993.147C993.956 415.407 994.676 415.105 995.305 414.502C995.948 413.898 996.269 413.159 996.269 412.285C996.269 411.45 995.961 410.731 995.344 410.127C994.727 409.51 993.995 409.202 993.147 409.202Z" fill="white"></path><path d="M979.693 431.942H966.935C966.833 431.942 966.781 431.878 966.781 431.75L966.82 404.635C966.82 404.532 966.871 404.48 966.974 404.48H979.654C979.757 404.48 979.809 404.545 979.809 404.673V409.086C979.809 409.189 979.757 409.241 979.654 409.241H971.561V415.407H979.654C979.757 415.407 979.809 415.459 979.809 415.562L979.847 420.033C979.847 420.135 979.796 420.187 979.693 420.187H971.561V427.086H979.693C979.796 427.086 979.847 427.15 979.847 427.279V431.788C979.847 431.891 979.796 431.942 979.693 431.942Z" fill="white"></path><path d="M953.859 431.902L946.786 431.941C946.658 431.941 946.594 431.877 946.594 431.748L946.671 404.633C946.671 404.53 946.722 404.479 946.825 404.479L954.206 404.44C955.671 404.402 956.994 404.736 958.176 405.443C959.371 406.149 960.321 407.106 961.028 408.314C961.747 409.509 962.107 410.832 962.107 412.284V423.616C962.107 425.132 961.741 426.519 961.009 427.778C960.263 429.024 959.274 430.02 958.041 430.765C956.808 431.498 955.414 431.877 953.859 431.902ZM954.206 409.162L951.45 409.201L951.412 427.084H953.859C954.835 427.084 955.658 426.744 956.326 426.063C956.994 425.382 957.328 424.566 957.328 423.616V412.245C957.328 411.41 957.02 410.684 956.403 410.068C955.786 409.438 955.054 409.136 954.206 409.162Z" fill="white"></path><path d="M931.001 431.942H927.05C926.844 431.942 926.742 431.852 926.742 431.672L926.703 404.789C926.703 404.583 926.806 404.48 927.011 404.48H930.577L937.245 420.033L937.052 404.789C937.052 404.583 937.167 404.48 937.399 404.48H941.311C941.465 404.48 941.542 404.583 941.542 404.789L941.581 431.711C941.581 431.865 941.516 431.942 941.388 431.942H937.919L931.078 417.412L931.367 431.634C931.367 431.839 931.245 431.942 931.001 431.942Z" fill="white"></path><path d="M914.228 432.328C912.84 432.328 911.555 431.968 910.374 431.248C909.192 430.529 908.247 429.565 907.541 428.358C906.847 427.137 906.5 425.808 906.5 424.369L906.577 404.635C906.577 404.532 906.628 404.48 906.731 404.48H911.164C911.266 404.48 911.318 404.532 911.318 404.635V424.369C911.318 425.255 911.6 426.013 912.166 426.643C912.731 427.259 913.418 427.568 914.228 427.568C915.076 427.568 915.782 427.259 916.348 426.643C916.913 426.013 917.196 425.255 917.196 424.369V404.635C917.196 404.532 917.247 404.48 917.35 404.48H921.782C921.885 404.48 921.936 404.532 921.936 404.635L922.013 424.369C922.013 425.82 921.666 427.157 920.973 428.377C920.266 429.585 919.328 430.548 918.159 431.268C916.99 431.974 915.68 432.328 914.228 432.328Z" fill="white"></path><path d="M894.657 432.326C893.257 432.326 891.965 431.966 890.783 431.246C889.614 430.527 888.67 429.57 887.951 428.375C887.244 427.167 886.891 425.844 886.891 424.405L886.929 411.898C886.929 410.433 887.282 409.116 887.989 407.947C888.683 406.765 889.621 405.821 890.803 405.114C891.985 404.395 893.269 404.035 894.657 404.035C896.096 404.035 897.387 404.388 898.53 405.095C899.687 405.802 900.612 406.752 901.306 407.947C902.012 409.129 902.365 410.446 902.365 411.898L902.404 424.405C902.404 425.844 902.057 427.161 901.363 428.356C900.657 429.563 899.719 430.527 898.55 431.246C897.381 431.966 896.083 432.326 894.657 432.326ZM894.657 427.566C895.453 427.566 896.147 427.244 896.738 426.602C897.329 425.947 897.625 425.214 897.625 424.405L897.586 411.898C897.586 411.024 897.31 410.286 896.758 409.682C896.205 409.078 895.505 408.776 894.657 408.776C893.848 408.776 893.154 409.071 892.576 409.662C891.998 410.253 891.708 410.999 891.708 411.898V424.405C891.708 425.266 891.998 426.011 892.576 426.641C893.154 427.257 893.848 427.566 894.657 427.566Z" fill="white"></path><path d="M875.367 431.942H870.935C870.806 431.942 870.742 431.878 870.742 431.75L870.819 404.635C870.819 404.532 870.871 404.48 870.973 404.48H883.615C883.744 404.48 883.808 404.532 883.808 404.635V409.086C883.808 409.189 883.757 409.241 883.654 409.241H875.56V415.369H883.654C883.757 415.369 883.808 415.433 883.808 415.562L883.847 420.033C883.847 420.135 883.782 420.187 883.654 420.187H875.56V431.75C875.56 431.878 875.496 431.942 875.367 431.942Z" fill="white"></path></g><defs><filter id="filter0_d_3646_2680" x="510.008" y="252" width="660" height="396.629" filterUnits="userSpaceOnUse" color-interpolation-filters="sRGB"><feFlood flood-opacity="0" result="BackgroundImageFix"></feFlood><feColorMatrix in="SourceAlpha" type="matrix" values="0 0 0 0 0 0 0 0 0 0 0 0 0 0 0 0 0 0 127 0" result="hardAlpha"></feColorMatrix><feOffset></feOffset><feGaussianBlur stdDeviation="75"></feGaussianBlur><feComposite in2="hardAlpha" operator="out"></feComposite><feColorMatrix type="matrix" values="0 0 0 0 0 0 0 0 0 0 0 0 0 0 0 0 0 0 0.25 0"></feColorMatrix><feBlend mode="normal" in2="BackgroundImageFix" result="effect1_dropShadow_3646_2680"></feBlend><feBlend mode="normal" in="SourceGraphic" in2="effect1_dropShadow_3646_2680" result="shape"></feBlend></filter></defs></svg> 