<?xml version="1.0" encoding="UTF-8"?> <svg xmlns="http://www.w3.org/2000/svg" width="220" height="76" viewBox="0 0 220 76" fill="none"><g clip-path="url(#clip0_3524_2615)"><path d="M0 17.5H9.7V58.4H0V74.6H51.9V58.4H42.1V17.5H51.9V0H0V17.5Z" fill="white"></path><path d="M131.802 58.4016V36.9016C131.802 23.2016 121.802 18.2016 109.402 18.2016C100.602 18.2016 93.9016 20.6016 88.1016 27.3016C87.7016 27.8016 87.2016 28.4016 86.6016 28.9016V17.6016H54.6016V33.9016H61.9016V58.4016H54.6016V74.7016H95.2016V58.4016H87.5016V44.3016C87.5016 38.3016 92.0016 33.9016 98.0016 33.9016C102.702 33.9016 106.402 36.2016 106.402 41.3016V58.3016H98.9016V74.6016H138.602V58.6016C138.602 58.5016 138.502 58.4016 138.502 58.3016H131.802V58.4016Z" fill="white"></path><path d="M203.2 53.5969H182.1H181.4C181.4 59.5969 177 62.3969 172.1 62.3969C162.7 62.3969 161.9 54.4969 161.9 46.9969V46.7969C161.9 39.2969 162.6 31.3969 172.1 31.3969C179.5 31.3969 180.8 37.7969 181 43.8969L202.9 41.4969C200.6 19.1969 178.6 17.7969 173.1 17.7969C172.3 17.7969 171.9 17.7969 171.9 17.7969C153.8 17.7969 136 26.6969 136 46.8969C136 51.1969 136.8 54.9969 138.3 58.2969H138.4V58.5969C143.8 70.5969 157.8 75.9969 171.9 75.9969C183.4 75.9969 199.5 73.1969 203.1 55.4969L203.2 53.5969Z" fill="white"></path><path d="M210.7 74.9C215.781 74.9 219.9 70.781 219.9 65.7C219.9 60.619 215.781 56.5 210.7 56.5C205.619 56.5 201.5 60.619 201.5 65.7C201.5 70.781 205.619 74.9 210.7 74.9Z" fill="white"></path></g><defs><clipPath id="clip0_3524_2615"><rect width="220" height="76" fill="white"></rect></clipPath></defs></svg> 