<?xml version="1.0" encoding="UTF-8"?> <svg xmlns="http://www.w3.org/2000/svg" width="148" height="24" viewBox="0 0 148 24" fill="none" class="desktop-logo"><g clip-path="url(#clip0_103_96)"><path d="M12.0902 23.4951C9.19155 23.4951 6.29289 23.4988 3.39422 23.4944C1.92856 23.4922 0.802205 22.69 0.438388 21.3875C0.367109 21.1317 0.33444 20.8566 0.33444 20.5905C0.327757 14.667 0.329242 8.74359 0.329242 2.82014C0.329242 1.40192 1.53949 0.11566 2.96061 0.0222485C3.11134 0.0126108 3.26354 0.00964538 3.41427 0.00964538C9.16927 0.0074213 14.9228 0.00964537 20.6771 7.71369e-06C21.5688 -0.001475 22.3595 0.210554 23.0144 0.846639C23.5987 1.41378 23.8794 2.10769 23.8801 2.90613C23.8868 8.84071 23.8905 14.7753 23.8809 20.7091C23.8787 22.1347 22.6342 23.4321 21.2064 23.4625C19.1416 23.507 17.0753 23.4885 15.0097 23.4944C14.0363 23.4974 13.0629 23.4944 12.0895 23.4951H12.0902ZM12.0858 20.3488C12.183 20.3488 12.2795 20.3488 12.3768 20.3488C13.9991 20.3421 15.5829 20.0908 17.1191 19.5682C18.2588 19.1812 19.3488 18.6845 20.3058 17.9438C20.4892 17.8022 20.6548 17.5784 20.7216 17.3597C20.8152 17.052 20.6875 16.7636 20.3979 16.5812C20.066 16.3722 19.7393 16.4085 19.4319 16.6346C18.5365 17.2922 17.5519 17.7741 16.4976 18.1196C14.7706 18.686 12.9975 18.8483 11.1881 18.7475C8.83961 18.617 6.66413 17.9861 4.72847 16.6176C4.63417 16.5508 4.52354 16.4938 4.41217 16.4678C4.04612 16.3811 3.68528 16.5634 3.52564 16.8985C3.35042 17.267 3.44917 17.6228 3.84417 17.9105C6.30031 19.6972 9.10913 20.3132 12.0858 20.3503V20.3488ZM12.8899 9.57243H12.8884C12.8884 7.81393 12.8884 6.05542 12.8876 4.29692C12.8876 4.13531 12.8839 3.97295 12.8676 3.81207C12.8156 3.29535 12.3063 2.98917 11.8244 3.17895C11.4584 3.32278 11.3061 3.57558 11.3061 4.0545C11.3061 7.7005 11.3061 11.3472 11.3076 14.9932C11.3076 15.1334 11.3106 15.275 11.3344 15.4121C11.3915 15.745 11.6603 15.9904 11.9929 16.0311C12.3375 16.0734 12.6627 15.9192 12.7904 15.6056C12.8609 15.4321 12.8854 15.2297 12.8862 15.0407C12.8928 13.2177 12.8899 11.3947 12.8899 9.57095V9.57243ZM8.95915 9.53907C8.95915 7.81393 8.96212 6.08804 8.95767 4.3629C8.95618 3.86026 8.63023 3.51701 8.17583 3.51331C7.71475 3.5096 7.38285 3.84247 7.38211 4.34882C7.3784 7.79984 7.37914 11.2509 7.38731 14.7019C7.38731 14.8665 7.43631 15.0481 7.51724 15.1904C7.69396 15.4988 8.05777 15.6204 8.38595 15.5211C8.74606 15.4121 8.95692 15.1259 8.95767 14.716C8.96064 12.9908 8.95915 11.265 8.95841 9.53981L8.95915 9.53907ZM16.8206 9.52647C16.8206 9.44047 16.8206 9.35373 16.8206 9.26773C16.8206 7.62933 16.8228 5.99018 16.8184 4.35178C16.8169 3.87138 16.4969 3.53036 16.0566 3.51479C15.6081 3.49922 15.2829 3.81133 15.2443 4.2984C15.2361 4.4059 15.2376 4.51414 15.2376 4.62164C15.2376 7.87768 15.2391 11.1337 15.2406 14.389C15.2406 14.5507 15.2354 14.7145 15.2614 14.8731C15.2822 14.9955 15.3274 15.1252 15.398 15.226C15.597 15.5092 15.9445 15.6167 16.2556 15.5137C16.6209 15.3936 16.8176 15.1208 16.8184 14.7019C16.8213 12.9767 16.8198 11.2516 16.8198 9.52721L16.8206 9.52647ZM19.1631 9.3945H19.1616C19.1616 10.5162 19.1609 11.6386 19.1616 12.7603C19.1616 13.3304 19.4824 13.6996 19.9658 13.6929C20.4484 13.6862 20.7491 13.3408 20.7513 12.7788C20.7543 11.9915 20.752 11.2034 20.752 10.4161C20.752 8.93783 20.7521 7.4603 20.7506 5.98203C20.7506 5.54092 20.5679 5.2466 20.2383 5.13392C19.6621 4.93746 19.1698 5.30962 19.1654 5.96275C19.1587 7.10593 19.1631 8.24985 19.1631 9.39302V9.3945ZM5.02843 9.37893H5.02472C5.02472 8.24614 5.02249 7.11334 5.02546 5.98055C5.02621 5.60542 4.91483 5.29627 4.54582 5.14059C4.00455 4.91299 3.45214 5.30962 3.45065 5.93384C3.4462 8.0052 3.44917 10.0766 3.44917 12.1479C3.44917 12.4178 3.43803 12.6884 3.45362 12.9567C3.47218 13.2592 3.62736 13.489 3.90357 13.6188C4.17903 13.7478 4.45598 13.7248 4.70248 13.5461C4.94899 13.3674 5.0314 13.108 5.02992 12.8092C5.02546 11.666 5.02843 10.5221 5.02843 9.37893Z" fill="#e0e0e0"></path><path d="M30.0903 0H34.5282V4.73283H30.0903V0ZM30.1572 7.38467H34.4606V23.4966H30.1572V7.38467Z" fill="#e0e0e0"></path><path d="M36.8025 7.38449H40.9374L41.0384 10.3722H41.1728C41.8789 8.52618 43.0216 6.8811 45.9804 6.8811C48.9392 6.8811 51.0567 8.2237 51.0567 12.4532V23.4964H46.7533V13.2249C46.7533 11.6473 46.4511 10.2706 44.4672 10.2706C41.6769 10.2706 41.1052 13.56 41.1052 15.5068V23.4957H36.8018V7.38449H36.8025Z" fill="#e0e0e0"></path><path d="M54.5532 19.6706V10.6075H51.7295V7.75479C55.4612 7.5865 55.8644 5.53887 56.0663 2.71948H58.789V7.38559H62.2186V10.6083H58.8566V19.1346C58.8566 19.6047 59.0586 19.8056 59.5293 19.8056H62.2186V23.4983H58.0161C55.4278 23.4983 54.5532 22.1223 54.5532 19.6714V19.6706Z" fill="#e0e0e0"></path><path d="M62.3862 15.4742C62.3862 10.7073 65.6138 6.8811 70.5892 6.8811C75.5646 6.8811 78.5902 10.3722 78.5902 15.81H66.8575C66.8575 18.6628 68.1011 20.8787 70.757 20.8787C73.1434 20.8787 74.1524 18.8644 74.3202 16.8843L78.3883 17.7902C77.5812 21.2812 74.9595 23.9998 70.7236 23.9998C65.6472 23.9998 62.3862 20.2737 62.3862 15.4742ZM74.1866 13.5274C73.8502 11.0097 72.3378 9.9355 70.5892 9.9355C68.8407 9.9355 67.3282 11.0772 66.9919 13.5274H74.1858H74.1866Z" fill="#e0e0e0"></path><path d="M80.0354 7.38483H84.1703L84.2713 11.2451H84.4057C84.9098 8.79489 86.1542 7.11646 88.574 7.11646C89.0447 7.11646 89.3135 7.14982 89.6499 7.21728V11.4801C89.1791 11.3793 88.8428 11.3118 88.2376 11.3118C85.1452 11.3118 84.3381 14.1653 84.3381 17.2531V23.4968H80.0347V7.38483H80.0354Z" fill="#e0e0e0"></path><path d="M89.6064 15.4742C89.6064 10.5731 92.7665 6.8811 97.8762 6.8811C102.347 6.8811 104.836 9.53294 105.474 12.8557L101.272 14.2317C101.103 11.6139 100.061 10.0022 97.8762 10.0022C95.8931 10.0022 94.3131 11.714 94.3131 15.4734C94.3131 19.2329 95.994 20.8772 97.9438 20.8772C100.23 20.8772 101.373 18.9304 101.676 16.2452L105.744 17.0503C105.172 21.1789 102.348 23.9983 97.9446 23.9983C92.7338 23.9983 89.6072 20.3731 89.6072 15.4727L89.6064 15.4742Z" fill="#e0e0e0"></path><path d="M106.267 15.4408C106.267 10.6405 109.427 6.8811 114.435 6.8811C119.444 6.8811 122.604 10.6405 122.604 15.4408C122.604 20.2411 119.444 24.0006 114.435 24.0006C109.427 24.0006 106.267 20.2411 106.267 15.4408ZM117.898 15.4408C117.898 11.7822 116.554 10.003 114.435 10.003C112.317 10.003 110.972 11.7822 110.972 15.4408C110.972 19.0994 112.317 20.8787 114.435 20.8787C116.554 20.8787 117.898 19.0994 117.898 15.4408Z" fill="#e0e0e0"></path><path d="M124.139 7.38449H128.274L128.375 10.3722H128.509C129.182 8.29117 130.459 6.8811 133.249 6.8811C135.602 6.8811 137.318 7.88787 137.855 10.4055H137.99C138.661 8.49208 139.872 6.8811 142.763 6.8811C145.654 6.8811 147.672 8.2237 147.672 12.4532V23.4964H143.368V13.2249C143.368 11.6807 143.032 10.2706 141.216 10.2706C138.594 10.2706 138.056 13.56 138.056 15.5068V23.4957H133.753V13.2242C133.753 11.6799 133.417 10.2699 131.601 10.2699C128.979 10.2699 128.441 13.5593 128.441 15.5061V23.495H124.138V7.38449H124.139Z" fill="#e0e0e0"></path></g><defs><clipPath id="clip0_103_96"><rect width="147.342" height="24" fill="#e0e0e0" transform="translate(0.329102)"></rect></clipPath></defs></svg> 