<?xml version="1.0" encoding="UTF-8"?> <svg xmlns="http://www.w3.org/2000/svg" width="814" height="513" viewBox="0 0 814 513" fill="none"><path fill-rule="evenodd" clip-rule="evenodd" d="M84 1H0V35H25L25 257H59L59 35H84V1Z" fill="#e0e0e0"></path><path fill-rule="evenodd" clip-rule="evenodd" d="M128 1H94L94 257H128H167V223H128V137H162V103H128V35H167V1H128Z" fill="#e0e0e0"></path><path fill-rule="evenodd" clip-rule="evenodd" d="M309 1V103H336L336 1H370L370 257H336V137H309L309 257H275L275 1H309Z" fill="#e0e0e0"></path><path fill-rule="evenodd" clip-rule="evenodd" d="M211 0H209C191.327 0 177 14.3269 177 32L177 226C177 243.673 191.327 258 209 258H211H231H233C250.673 258 265 243.673 265 226L265 138H231L231 224H211V34H231V102H265L265 32C265 14.3269 250.673 0 233 0H231H211Z" fill="#e0e0e0"></path><path fill-rule="evenodd" clip-rule="evenodd" d="M425.676 443.811L414 257H380L400.5 513H420H430H449L459 342.333L469 513H488H498H517.5L538 257H504L492.324 443.811L477 257H464H454H441L425.676 443.811Z" fill="#e0e0e0"></path><path fill-rule="evenodd" clip-rule="evenodd" d="M582 257H548L548 513H582H621V479H582V393H616V359H582V291H621V257H582Z" fill="#e0e0e0"></path><path fill-rule="evenodd" clip-rule="evenodd" d="M665 257H631L631 513H665H704V479H665V393H699V359H665V291H704V257H665Z" fill="#e0e0e0"></path><path fill-rule="evenodd" clip-rule="evenodd" d="M748 366V257H714L714 432V513H748V432L756.081 403.121L780 513H814L782 366L810 257H776L748 366Z" fill="#e0e0e0"></path></svg> 