<?xml version="1.0" encoding="UTF-8"?> <svg xmlns="http://www.w3.org/2000/svg" viewBox="0 0 198 90"><path d="M86.98369,5.27215A18.00009,18.00009,0,0,0,74.25566,0H48V48H66V18h5.77037a6.00953,6.00953,0,0,1,4.24677,1.75727l6.21717,6.21313A6.0075,6.0075,0,0,1,84,30.21313V48h18V27.72785A18.00852,18.00852,0,0,0,96.71975,15Z" fill="#fff"></path><path d="M180,0V17.78687a6.00736,6.00736,0,0,1-1.76568,4.24255l-6.22156,6.21314A5.99908,5.99908,0,0,1,167.77019,30h-8.64643A17.97478,17.97478,0,0,0,162,20.272V0H144V17.78687a6.00733,6.00733,0,0,1-1.76569,4.24255l-6.22156,6.21314A5.99908,5.99908,0,0,1,131.77019,30H126V0H108V48h26.25568a18.00909,18.00909,0,0,0,12.73206-5.27216L153,36.71814V48h17.25567a18.009,18.009,0,0,0,12.732-5.27216l9.73206-9.728A18.00788,18.00788,0,0,0,198,20.272V0Z" fill="#fff"></path><polygon points="0 18 12 18 12 48 30 48 30 18 42 18 42 0 0 0 0 18" fill="#fff"></polygon><line x1="20.99999" y1="65.99999" x2="176.99999" y2="65.99999" fill="none" stroke="#fff" stroke-miterlimit="10"></line><path d="M27.0806,83.20845H23.26316L22.20652,86H21l3.62085-9.26468h1.11684L29.35975,86H28.152Zm-3.4255-1.04128h3.03355L25.16512,78.214Z" fill="#fff"></path><path d="M33.74114,86V76.73528h5.91475v1.38777H35.31013v2.74666h4.05949v1.373H35.31013V86Z" fill="#fff"></path><path d="M41.72864,78.19861a.92038.92038,0,1,1,.935-.92026A.937.937,0,0,1,41.72864,78.19861ZM42.483,86h-1.51V79.3001h1.51Z" fill="#fff"></path><path d="M44.20438,79.3001h1.51v.634a2.3707,2.3707,0,0,1,1.80981-.7845,2.25226,2.25226,0,0,1,2.36885,2.48926V86H48.38427V81.89564c0-.83-.40669-1.373-1.26675-1.373A1.41944,1.41944,0,0,0,45.7144,81.594V86h-1.51Z" fill="#fff"></path><path d="M55.23894,81.71441c0-.7544-.6045-1.1918-1.53951-1.1918a3.30488,3.30488,0,0,0-1.8565.58853V79.72276a4.00574,4.00574,0,0,1,2.128-.57317c1.73486,0,2.71656.93562,2.71656,2.45915V86H55.23894v-.3772a2.719,2.719,0,0,1-1.64517.49761,2.27486,2.27486,0,0,1-2.50523-2.18762,2.34515,2.34515,0,0,1,2.61089-2.15814,3.12432,3.12432,0,0,1,1.53951.40792Zm0,1.9468a1.43584,1.43584,0,0,0-1.35889-.67883c-.69419,0-1.38839.30164-1.38839.95037,0,.66409.6942.96572,1.38839.96572a1.437,1.437,0,0,0,1.35889-.67883Z" fill="#fff"></path><path d="M58.32041,79.3001h1.51v.634a2.37072,2.37072,0,0,1,1.80981-.7845,2.25226,2.25226,0,0,1,2.36885,2.48926V86H62.5003V81.89564c0-.83-.40669-1.373-1.26675-1.373A1.41945,1.41945,0,0,0,59.83043,81.594V86h-1.51Z" fill="#fff"></path><path d="M68.50966,79.14959a2.82851,2.82851,0,0,1,1.82578.55781v1.4793a2.38011,2.38011,0,0,0-1.72012-.69419,2.1711,2.1711,0,0,0,0,4.31566,2.3826,2.3826,0,0,0,1.72012-.6942v1.47869a2.82894,2.82894,0,0,1-1.82578.55843,3.50489,3.50489,0,0,1,0-7.0015Z" fill="#fff"></path><path d="M72.40573,78.19861a.9204.9204,0,1,1,.93623-.92026A.93678.93678,0,0,1,72.40573,78.19861ZM73.16135,86h-1.51V79.3001h1.51Z" fill="#fff"></path><path d="M78.59447,81.71441c0-.7544-.6045-1.1918-1.53951-1.1918a3.30483,3.30483,0,0,0-1.8565.58853V79.72276a4.009,4.009,0,0,1,2.128-.57317c1.73487,0,2.71656.93562,2.71656,2.45915V86H78.59447v-.3772a2.71906,2.71906,0,0,1-1.64517.49761,2.27486,2.27486,0,0,1-2.50523-2.18762A2.34515,2.34515,0,0,1,77.055,81.77461a3.12436,3.12436,0,0,1,1.53951.40792Zm0,1.9468a1.43584,1.43584,0,0,0-1.3589-.67883c-.69419,0-1.38838.30164-1.38838.95037,0,.66409.69419.96572,1.38838.96572a1.437,1.437,0,0,0,1.3589-.67883Z" fill="#fff"></path><path d="M83.186,86h-1.51V76.1916h1.51Z" fill="#fff"></path><path d="M87.60912,76.73528h7.72579v1.38777H92.25712V86h-1.569V78.12305h-3.079Z" fill="#fff"></path><path d="M97.3327,78.19861a.92038.92038,0,1,1,.935-.92026A.937.937,0,0,1,97.3327,78.19861ZM98.0871,86h-1.51V79.3001h1.51Z" fill="#fff"></path><path d="M106.75035,79.14959c1.35767,0,2.17227.96572,2.17227,2.48926V86h-1.50879V81.88028c0-.82935-.36245-1.373-1.10088-1.373a1.1771,1.1771,0,0,0-1.193.99583V86h-1.50879V81.88028c0-.82935-.36123-1.373-1.10088-1.373a1.17505,1.17505,0,0,0-1.1918.99583V86h-1.51V79.3001h1.51v.55842a2.03286,2.03286,0,0,1,1.67466-.70893,2.20972,2.20972,0,0,1,1.76558.89016A2.46737,2.46737,0,0,1,106.75035,79.14959Z" fill="#fff"></path><path d="M113.40967,86.15109a3.201,3.201,0,0,1-3.31983-3.44086c0-2.08195,1.29746-3.56064,3.07779-3.56064,1.84052,0,2.82222,1.31282,2.82222,3.28911v.54368h-4.42193A1.89909,1.89909,0,0,0,113.621,84.853a3.09609,3.09609,0,0,0,1.91548-.61863v1.32818A3.5366,3.5366,0,0,1,113.40967,86.15109Zm-1.76558-4.31566H114.556a1.35232,1.35232,0,0,0-1.37364-1.41848A1.55949,1.55949,0,0,0,111.64409,81.83543Z" fill="#fff"></path><path d="M117.01946,83.91739a3.44692,3.44692,0,0,0,2.26319.98108c.64873,0,1.16231-.22669,1.16231-.70955,0-.45214-.333-.60327-.89078-.78449l-.72368-.22608c-1.14756-.36245-1.811-.87542-1.811-2.02237,0-1.20715,1.08614-2.00639,2.52-2.00639a3.65315,3.65315,0,0,1,2.00639.58852v1.52354a3.02858,3.02858,0,0,0-2.00639-.86006c-.60327,0-1.07139.25679-1.07139.69419,0,.438.25679.58853.86006.76975l.8748.27154c1.11685.36245,1.70538.95036,1.70538,1.9769,0,1.28272-1.14634,2.03712-2.64039,2.03712a3.69438,3.69438,0,0,1-2.24844-.69419Z" fill="#fff"></path><path d="M126.96789,80.11531a3.08656,3.08656,0,0,1,2.2939-.951,2.74158,2.74158,0,0,1,1.79507.55843v1.147a2.341,2.341,0,0,0-1.72012-.69419,2.05568,2.05568,0,0,0-1.52353.66409,2.9028,2.9028,0,0,0,0,3.62146,2.05736,2.05736,0,0,0,1.52353.66347,2.34043,2.34043,0,0,0,1.72012-.69357V85.5773a2.74158,2.74158,0,0,1-1.79507.55843,3.13188,3.13188,0,0,1-2.2939-.93562,3.49161,3.49161,0,0,1-.935-2.55008A3.43111,3.43111,0,0,1,126.96789,80.11531Z" fill="#fff"></path><path d="M137.29352,85.15465a3.01518,3.01518,0,0,1-4.45142,0,4.13316,4.13316,0,0,1,0-5.00924,3.01518,3.01518,0,0,1,4.45142,0,4.07694,4.07694,0,0,1,0,5.00924Zm-2.219-4.99449c-1.20654,0-1.93145,1.04128-1.93145,2.48987s.72491,2.48987,1.93145,2.48987c1.20777,0,1.93145-1.04128,1.93145-2.48987S136.28234,80.16016,135.07457,80.16016Z" fill="#fff"></path><path d="M146.3352,79.16433c1.34292,0,2.11329.951,2.11329,2.39957V86h-1.14756V81.74451c0-.92026-.40669-1.55425-1.26675-1.55425a1.54959,1.54959,0,0,0-1.4793,1.19241V86h-1.13159V81.74451c0-.92026-.40669-1.55425-1.26675-1.55425a1.5496,1.5496,0,0,0-1.4793,1.19241V86h-1.13159V79.3001h1.13159v.78511a2.07614,2.07614,0,0,1,1.811-.92088,1.986,1.986,0,0,1,1.80981,1.07139A2.44473,2.44473,0,0,1,146.3352,79.16433Z" fill="#fff"></path><path d="M151.35058,88.5654H150.219V79.3001h1.1316v.78511a2.382,2.382,0,0,1,1.886-.92088A2.60182,2.60182,0,0,1,155.485,80.221a3.9812,3.9812,0,0,1,.76913,2.42905,4.059,4.059,0,0,1-.76913,2.44441,2.62877,2.62877,0,0,1-2.24845,1.04129,2.38156,2.38156,0,0,1-1.886-.92027Zm0-4.55709a1.95593,1.95593,0,0,0,1.72012,1.10149c1.268,0,2.03711-1.05664,2.03711-2.45977s-.76914-2.45977-2.03711-2.45977a1.95593,1.95593,0,0,0-1.72012,1.10149Z" fill="#fff"></path><path d="M161.374,81.54854c0-.83-.618-1.34292-1.59849-1.34292a3.37608,3.37608,0,0,0-1.902.58853V79.72276a3.83549,3.83549,0,0,1,2.08258-.55843,2.23825,2.23825,0,0,1,2.52,2.2939V86H161.374v-.49822a2.70129,2.70129,0,0,1-1.73487.61863,2.84472,2.84472,0,0,1-1.76558-.57317,1.88594,1.88594,0,0,1-.72367-1.569,1.80543,1.80543,0,0,1,.73842-1.50941,2.96619,2.96619,0,0,1,3.4857-.04484Zm0,2.09732a1.62,1.62,0,0,0-1.55425-.83,2.1074,2.1074,0,0,0-1.10088.28689.91873.91873,0,0,0-.49761.87542.979.979,0,0,0,.49761.9049,2.10159,2.10159,0,0,0,1.10088.28689,1.61893,1.61893,0,0,0,1.55425-.82995Z" fill="#fff"></path><path d="M164.26007,79.3001h1.13159v.84531a2.47962,2.47962,0,0,1,1.97691-.98108,2.22759,2.22759,0,0,1,2.3541,2.44441V86h-1.14756V81.79a1.401,1.401,0,0,0-1.47807-1.58435,1.81722,1.81722,0,0,0-1.70538,1.25261V86h-1.13159Z" fill="#fff"></path><path d="M172.27705,88.5654l1.01119-2.52-2.6109-6.74532h1.22251l1.97691,5.28138L175.823,79.3001H177l-3.60611,9.2653Z" fill="#fff"></path></svg> 